<mxfile host="65bd71144e">
    <diagram id="U7wQjwATAv_x46bfb0uR" name="第 1 页">
        <mxGraphModel dx="888" dy="512" grid="1" gridSize="10" guides="1" tooltips="1" connect="1" arrows="1" fold="1" page="1" pageScale="1" pageWidth="827" pageHeight="1169" math="0" shadow="0">
            <root>
                <mxCell id="0"/>
                <mxCell id="1" parent="0"/>
                <mxCell id="2" value="&#10;&#10;" style="swimlane;startSize=0;" parent="1" vertex="1">
                    <mxGeometry x="140" y="60" width="570" height="550" as="geometry">
                        <mxRectangle x="140" y="60" width="50" height="40" as="alternateBounds"/>
                    </mxGeometry>
                </mxCell>
                <mxCell id="3" value="登录" style="ellipse;whiteSpace=wrap;html=1;" parent="2" vertex="1">
                    <mxGeometry x="70" y="30" width="110" height="30" as="geometry"/>
                </mxCell>
                <mxCell id="4" style="edgeStyle=none;html=1;entryX=0;entryY=0.5;entryDx=0;entryDy=0;" parent="2" source="16" target="17" edge="1">
                    <mxGeometry relative="1" as="geometry"/>
                </mxCell>
                <mxCell id="5" value="&lt;font style=&quot;font-size: 11px;&quot;&gt;include&lt;br&gt;&lt;/font&gt;" style="edgeLabel;html=1;align=center;verticalAlign=middle;resizable=0;points=[];rotation=0;" parent="4" vertex="1" connectable="0">
                    <mxGeometry x="0.1643" y="1" relative="1" as="geometry">
                        <mxPoint x="-13" y="5" as="offset"/>
                    </mxGeometry>
                </mxCell>
                <mxCell id="6" style="edgeStyle=none;html=1;entryX=0;entryY=0.5;entryDx=0;entryDy=0;" parent="2" source="16" target="18" edge="1">
                    <mxGeometry relative="1" as="geometry"/>
                </mxCell>
                <mxCell id="7" value="include" style="edgeLabel;html=1;align=center;verticalAlign=middle;resizable=0;points=[];fontSize=11;" parent="6" vertex="1" connectable="0">
                    <mxGeometry x="0.161" y="2" relative="1" as="geometry">
                        <mxPoint as="offset"/>
                    </mxGeometry>
                </mxCell>
                <mxCell id="8" style="edgeStyle=none;html=1;entryX=0;entryY=0.5;entryDx=0;entryDy=0;" parent="2" source="16" target="19" edge="1">
                    <mxGeometry relative="1" as="geometry"/>
                </mxCell>
                <mxCell id="9" value="include" style="edgeLabel;html=1;align=center;verticalAlign=middle;resizable=0;points=[];fontSize=11;" parent="8" vertex="1" connectable="0">
                    <mxGeometry x="0.1102" y="-3" relative="1" as="geometry">
                        <mxPoint as="offset"/>
                    </mxGeometry>
                </mxCell>
                <mxCell id="10" style="edgeStyle=none;html=1;entryX=0;entryY=0.5;entryDx=0;entryDy=0;" parent="2" source="16" target="20" edge="1">
                    <mxGeometry relative="1" as="geometry"/>
                </mxCell>
                <mxCell id="11" value="include" style="edgeLabel;html=1;align=center;verticalAlign=middle;resizable=0;points=[];fontSize=11;" parent="10" vertex="1" connectable="0">
                    <mxGeometry x="0.1884" y="-1" relative="1" as="geometry">
                        <mxPoint as="offset"/>
                    </mxGeometry>
                </mxCell>
                <mxCell id="12" style="edgeStyle=none;html=1;entryX=0;entryY=0.5;entryDx=0;entryDy=0;" parent="2" source="16" target="21" edge="1">
                    <mxGeometry relative="1" as="geometry"/>
                </mxCell>
                <mxCell id="13" value="include" style="edgeLabel;html=1;align=center;verticalAlign=middle;resizable=0;points=[];fontSize=11;" parent="12" vertex="1" connectable="0">
                    <mxGeometry x="0.2435" relative="1" as="geometry">
                        <mxPoint as="offset"/>
                    </mxGeometry>
                </mxCell>
                <mxCell id="14" style="edgeStyle=none;html=1;entryX=0;entryY=0.5;entryDx=0;entryDy=0;" parent="2" source="16" target="22" edge="1">
                    <mxGeometry relative="1" as="geometry"/>
                </mxCell>
                <mxCell id="15" value="include" style="edgeLabel;html=1;align=center;verticalAlign=middle;resizable=0;points=[];fontSize=11;" parent="14" vertex="1" connectable="0">
                    <mxGeometry x="0.189" y="1" relative="1" as="geometry">
                        <mxPoint as="offset"/>
                    </mxGeometry>
                </mxCell>
                <mxCell id="16" value="培育记录管理" style="ellipse;whiteSpace=wrap;html=1;" parent="2" vertex="1">
                    <mxGeometry x="70" y="120" width="110" height="30" as="geometry"/>
                </mxCell>
                <mxCell id="17" value="操作死亡情况记录" style="ellipse;whiteSpace=wrap;html=1;" parent="2" vertex="1">
                    <mxGeometry x="430" y="20" width="110" height="30" as="geometry"/>
                </mxCell>
                <mxCell id="18" value="操作个体死亡情况记录" style="ellipse;whiteSpace=wrap;html=1;" parent="2" vertex="1">
                    <mxGeometry x="420" y="50" width="130" height="30" as="geometry"/>
                </mxCell>
                <mxCell id="19" value="操作投药情况记录" style="ellipse;whiteSpace=wrap;html=1;" parent="2" vertex="1">
                    <mxGeometry x="420" y="80" width="130" height="30" as="geometry"/>
                </mxCell>
                <mxCell id="20" value="操作产蛋量记录" style="ellipse;whiteSpace=wrap;html=1;" parent="2" vertex="1">
                    <mxGeometry x="420" y="120" width="130" height="30" as="geometry"/>
                </mxCell>
                <mxCell id="21" value="操作投喂情况记录" style="ellipse;whiteSpace=wrap;html=1;" parent="2" vertex="1">
                    <mxGeometry x="420" y="160" width="130" height="30" as="geometry"/>
                </mxCell>
                <mxCell id="22" value="操作受精情况记录" style="ellipse;whiteSpace=wrap;html=1;" parent="2" vertex="1">
                    <mxGeometry x="420" y="200" width="130" height="30" as="geometry"/>
                </mxCell>
                <mxCell id="43" style="edgeStyle=none;html=1;entryX=0;entryY=0.5;entryDx=0;entryDy=0;fontSize=11;" parent="2" source="47" target="48" edge="1">
                    <mxGeometry relative="1" as="geometry"/>
                </mxCell>
                <mxCell id="44" value="include" style="edgeLabel;html=1;align=center;verticalAlign=middle;resizable=0;points=[];fontSize=11;" parent="43" vertex="1" connectable="0">
                    <mxGeometry x="0.1496" y="5" relative="1" as="geometry">
                        <mxPoint as="offset"/>
                    </mxGeometry>
                </mxCell>
                <mxCell id="45" style="edgeStyle=none;html=1;entryX=0;entryY=0.5;entryDx=0;entryDy=0;fontSize=11;" parent="2" source="47" target="49" edge="1">
                    <mxGeometry relative="1" as="geometry"/>
                </mxCell>
                <mxCell id="46" value="include" style="edgeLabel;html=1;align=center;verticalAlign=middle;resizable=0;points=[];fontSize=11;" parent="45" vertex="1" connectable="0">
                    <mxGeometry x="0.1734" y="2" relative="1" as="geometry">
                        <mxPoint as="offset"/>
                    </mxGeometry>
                </mxCell>
                <mxCell id="47" value="首页管理" style="ellipse;whiteSpace=wrap;html=1;" parent="2" vertex="1">
                    <mxGeometry x="60" y="280" width="110" height="30" as="geometry"/>
                </mxCell>
                <mxCell id="48" value="完成代办代办工作" style="ellipse;whiteSpace=wrap;html=1;" parent="2" vertex="1">
                    <mxGeometry x="410" y="250" width="110" height="30" as="geometry"/>
                </mxCell>
                <mxCell id="49" value="查看代办工作" style="ellipse;whiteSpace=wrap;html=1;" parent="2" vertex="1">
                    <mxGeometry x="410" y="289" width="110" height="30" as="geometry"/>
                </mxCell>
                <mxCell id="50" style="edgeStyle=none;html=1;entryX=0;entryY=0.5;entryDx=0;entryDy=0;fontSize=11;" parent="2" source="58" target="59" edge="1">
                    <mxGeometry relative="1" as="geometry"/>
                </mxCell>
                <mxCell id="51" value="include" style="edgeLabel;html=1;align=center;verticalAlign=middle;resizable=0;points=[];fontSize=11;" parent="50" vertex="1" connectable="0">
                    <mxGeometry x="0.0771" y="3" relative="1" as="geometry">
                        <mxPoint as="offset"/>
                    </mxGeometry>
                </mxCell>
                <mxCell id="52" style="edgeStyle=none;html=1;entryX=0;entryY=0.5;entryDx=0;entryDy=0;fontSize=11;" parent="2" source="58" target="60" edge="1">
                    <mxGeometry relative="1" as="geometry"/>
                </mxCell>
                <mxCell id="53" value="include" style="edgeLabel;html=1;align=center;verticalAlign=middle;resizable=0;points=[];fontSize=11;" parent="52" vertex="1" connectable="0">
                    <mxGeometry x="0.1139" y="4" relative="1" as="geometry">
                        <mxPoint as="offset"/>
                    </mxGeometry>
                </mxCell>
                <mxCell id="54" style="edgeStyle=none;html=1;entryX=0;entryY=0.5;entryDx=0;entryDy=0;fontSize=11;" parent="2" source="58" target="61" edge="1">
                    <mxGeometry relative="1" as="geometry"/>
                </mxCell>
                <mxCell id="55" value="include" style="edgeLabel;html=1;align=center;verticalAlign=middle;resizable=0;points=[];fontSize=11;" parent="54" vertex="1" connectable="0">
                    <mxGeometry x="0.1685" y="2" relative="1" as="geometry">
                        <mxPoint as="offset"/>
                    </mxGeometry>
                </mxCell>
                <mxCell id="56" style="edgeStyle=none;html=1;entryX=0;entryY=0.5;entryDx=0;entryDy=0;fontSize=11;" parent="2" source="58" target="62" edge="1">
                    <mxGeometry relative="1" as="geometry"/>
                </mxCell>
                <mxCell id="57" value="include" style="edgeLabel;html=1;align=center;verticalAlign=middle;resizable=0;points=[];fontSize=11;" parent="56" vertex="1" connectable="0">
                    <mxGeometry x="0.1907" y="1" relative="1" as="geometry">
                        <mxPoint y="1" as="offset"/>
                    </mxGeometry>
                </mxCell>
                <mxCell id="58" value="个人中心管理" style="ellipse;whiteSpace=wrap;html=1;" parent="2" vertex="1">
                    <mxGeometry x="60" y="379" width="110" height="30" as="geometry"/>
                </mxCell>
                <mxCell id="59" value="查看个人基本信息" style="ellipse;whiteSpace=wrap;html=1;" parent="2" vertex="1">
                    <mxGeometry x="410" y="329" width="110" height="30" as="geometry"/>
                </mxCell>
                <mxCell id="60" value="编辑个人基本信息" style="ellipse;whiteSpace=wrap;html=1;" parent="2" vertex="1">
                    <mxGeometry x="410" y="369" width="110" height="30" as="geometry"/>
                </mxCell>
                <mxCell id="61" value="修改密码" style="ellipse;whiteSpace=wrap;html=1;" parent="2" vertex="1">
                    <mxGeometry x="410" y="399" width="110" height="30" as="geometry"/>
                </mxCell>
                <mxCell id="62" value="查看消息" style="ellipse;whiteSpace=wrap;html=1;" parent="2" vertex="1">
                    <mxGeometry x="410" y="429" width="110" height="30" as="geometry"/>
                </mxCell>
                <mxCell id="63" style="edgeStyle=none;html=1;entryX=0;entryY=0.5;entryDx=0;entryDy=0;fontSize=11;" parent="2" source="67" target="68" edge="1">
                    <mxGeometry relative="1" as="geometry"/>
                </mxCell>
                <mxCell id="64" value="include" style="edgeLabel;html=1;align=center;verticalAlign=middle;resizable=0;points=[];fontSize=11;" parent="63" vertex="1" connectable="0">
                    <mxGeometry x="0.126" y="2" relative="1" as="geometry">
                        <mxPoint as="offset"/>
                    </mxGeometry>
                </mxCell>
                <mxCell id="65" style="edgeStyle=none;html=1;entryX=0;entryY=0.5;entryDx=0;entryDy=0;fontSize=11;" parent="2" source="67" target="69" edge="1">
                    <mxGeometry relative="1" as="geometry"/>
                </mxCell>
                <mxCell id="66" value="include" style="edgeLabel;html=1;align=center;verticalAlign=middle;resizable=0;points=[];fontSize=11;" parent="65" vertex="1" connectable="0">
                    <mxGeometry x="0.1902" y="1" relative="1" as="geometry">
                        <mxPoint as="offset"/>
                    </mxGeometry>
                </mxCell>
                <mxCell id="67" value="工作分配管理" style="ellipse;whiteSpace=wrap;html=1;" parent="2" vertex="1">
                    <mxGeometry x="60" y="479" width="110" height="30" as="geometry"/>
                </mxCell>
                <mxCell id="68" value="查询空闲员工" style="ellipse;whiteSpace=wrap;html=1;" parent="2" vertex="1">
                    <mxGeometry x="410" y="469" width="110" height="30" as="geometry"/>
                </mxCell>
                <mxCell id="69" value="分配工作" style="ellipse;whiteSpace=wrap;html=1;" parent="2" vertex="1">
                    <mxGeometry x="410" y="509" width="110" height="30" as="geometry"/>
                </mxCell>
                <mxCell id="86" style="edgeStyle=none;html=1;entryX=0;entryY=0.5;entryDx=0;entryDy=0;fontSize=11;" parent="1" source="94" target="3" edge="1">
                    <mxGeometry relative="1" as="geometry"/>
                </mxCell>
                <mxCell id="87" style="edgeStyle=none;html=1;entryX=0;entryY=0.5;entryDx=0;entryDy=0;fontSize=11;" parent="1" source="94" target="16" edge="1">
                    <mxGeometry relative="1" as="geometry"/>
                </mxCell>
                <mxCell id="90" style="edgeStyle=none;html=1;entryX=0;entryY=0.5;entryDx=0;entryDy=0;fontSize=11;" parent="1" source="94" target="47" edge="1">
                    <mxGeometry relative="1" as="geometry"/>
                </mxCell>
                <mxCell id="91" style="edgeStyle=none;html=1;entryX=0;entryY=0.5;entryDx=0;entryDy=0;fontSize=11;" parent="1" source="94" target="58" edge="1">
                    <mxGeometry relative="1" as="geometry"/>
                </mxCell>
                <mxCell id="92" style="edgeStyle=none;html=1;entryX=0;entryY=0.5;entryDx=0;entryDy=0;fontSize=11;" parent="1" source="94" target="67" edge="1">
                    <mxGeometry relative="1" as="geometry"/>
                </mxCell>
                <mxCell id="94" value="场长" style="shape=umlActor;verticalLabelPosition=bottom;verticalAlign=top;html=1;outlineConnect=0;fontSize=11;" parent="1" vertex="1">
                    <mxGeometry x="70" y="340" width="30" height="60" as="geometry"/>
                </mxCell>
                <mxCell id="96" style="edgeStyle=none;html=1;exitX=0.5;exitY=1;exitDx=0;exitDy=0;" parent="1" source="95" target="2" edge="1">
                    <mxGeometry relative="1" as="geometry"/>
                </mxCell>
                <mxCell id="95" value="&lt;font style=&quot;font-size: 14px;&quot;&gt;场长用例图&lt;/font&gt;" style="rounded=0;whiteSpace=wrap;html=1;fontSize=11;" parent="1" vertex="1">
                    <mxGeometry x="140" y="30" width="110" height="30" as="geometry"/>
                </mxCell>
            </root>
        </mxGraphModel>
    </diagram>
</mxfile>